<svg width="441" height="450" viewBox="0 0 441 450" fill="none" xmlns="http://www.w3.org/2000/svg">
<mask id="mask0_12_12" style="mask-type:luminance" maskUnits="userSpaceOnUse" x="0" y="0" width="441" height="450">
<path d="M440.816 0H0V450H440.816V0Z" fill="white"/>
</mask>
<g mask="url(#mask0_12_12)">
<path d="M302.511 290.112C288.46 302.51 270.276 318.214 238.041 318.214H219.031C195.888 318.214 174.398 309.949 158.694 294.245C143.817 279.367 135.551 258.704 135.551 236.388V209.939C135.551 187.622 143.817 166.959 158.694 152.081C173.572 136.377 195.062 128.112 219.031 128.112H238.041C270.276 128.112 288.46 143.816 302.511 156.214C317.388 169.439 329.786 181.01 364.5 181.01C369.46 181.01 375.245 181.01 380.205 180.183C378.551 175.224 376.072 170.265 372.766 165.306L349.623 125.632C328.96 89.265 290.113 66.949 247.96 66.949H202.5C160.347 66.949 122.327 89.265 100.837 125.632L78.5209 165.306C57.8579 201.673 57.8579 246.306 78.5209 282.673L101.664 322.347C122.327 358.714 161.174 381.03 203.327 381.03H248.786C290.939 381.03 328.96 358.714 350.449 322.347L373.592 282.673C376.072 277.714 378.551 272.755 381.031 267.796C376.072 266.969 370.286 266.143 365.327 266.143C330.613 266.143 317.388 277.714 302.511 290.112Z" fill="white"/>
<path d="M238.041 152.082H219.031C183.49 152.082 160.347 177.704 160.347 209.939V236.388C160.347 268.622 183.49 294.245 219.031 294.245H238.041C290.112 294.245 285.98 241.347 364.5 241.347C371.939 241.347 379.378 242.173 386.817 243C389.296 229.775 389.296 215.724 386.817 202.5C379.378 204.153 371.939 204.153 364.5 204.153C285.98 204.979 290.112 152.082 238.041 152.082Z" fill="white"/>
<path d="M431.449 263.663C418.225 253.745 402.521 247.132 386.817 244.653C385.164 252.092 383.511 260.357 380.204 267.796C393.429 270.275 406.653 275.234 417.398 283.5C384.337 389.296 271.929 448.806 166.133 415.745C60.337 382.684 0.826996 270.275 33.888 164.479C66.949 58.683 179.358 -0.82703 285.153 32.234C348.796 52.071 398.388 101.663 417.398 164.479C406.653 172.745 393.429 177.704 380.204 180.183C383.511 187.622 385.164 195.061 386.817 203.326C403.347 200.02 418.225 193.408 431.449 184.316C444.674 175.224 442.194 164.479 439.715 157.867C403.347 38.847 276.888 -27.276 158.694 9.09197C39.674 45.459 -26.449 171.918 9.919 290.112C46.286 409.133 172.745 475.255 290.939 438.888C362.021 416.571 417.398 361.194 439.715 290.112C442.194 283.5 444.674 272.755 431.449 263.663Z" fill="white"/>
<path d="M380.204 180.183C375.245 181.01 369.459 181.836 364.5 181.836C330.612 181.836 317.388 170.265 302.51 157.041C288.459 144.643 270.276 128.938 238.041 128.938H219.031C195.888 128.938 174.398 137.204 158.694 152.908C143.817 167.785 135.551 188.449 135.551 210.765V237.214C135.551 259.53 143.817 280.194 158.694 295.071C173.572 310.775 195.061 319.041 219.031 319.041H238.041C270.276 319.041 288.459 303.336 302.51 290.938C317.388 277.714 329.786 266.143 364.5 266.143C369.459 266.143 375.245 266.143 380.204 266.969C383.51 259.53 385.163 252.092 386.817 243.826C379.378 242.173 371.939 242.173 364.5 242.173C285.98 242.173 290.112 295.071 238.041 295.071H219.031C183.49 295.071 160.347 269.449 160.347 237.214V210.765C160.347 178.53 183.49 152.908 219.031 152.908H238.041C290.112 152.908 285.98 205.806 364.5 205.806C371.939 205.806 379.378 204.979 386.817 204.153C385.163 195.061 382.684 187.622 380.204 180.183Z" fill="#0AE8F0"/>
<path d="M380.204 180.183C375.245 181.01 369.459 181.836 364.5 181.836C330.612 181.836 317.388 170.265 302.51 157.041C288.459 144.643 270.276 128.938 238.041 128.938H219.031C195.888 128.938 174.398 137.204 158.694 152.908C143.817 167.785 135.551 188.449 135.551 210.765V237.214C135.551 259.53 143.817 280.194 158.694 295.071C173.572 310.775 195.061 319.041 219.031 319.041H238.041C270.276 319.041 288.459 303.336 302.51 290.938C317.388 277.714 329.786 266.143 364.5 266.143C369.459 266.143 375.245 266.143 380.204 266.969C383.51 259.53 385.163 252.092 386.817 243.826C379.378 242.173 371.939 242.173 364.5 242.173C285.98 242.173 290.112 295.071 238.041 295.071H219.031C183.49 295.071 160.347 269.449 160.347 237.214V210.765C160.347 178.53 183.49 152.908 219.031 152.908H238.041C290.112 152.908 285.98 205.806 364.5 205.806C371.939 205.806 379.378 204.979 386.817 204.153C385.163 195.061 382.684 187.622 380.204 180.183Z" fill="#0AE8F0"/>
</g>
</svg>
