<svg width="214" height="215" viewBox="0 0 214 215" fill="none" xmlns="http://www.w3.org/2000/svg">
<circle cx="107" cy="107" r="107" fill="#07103F"/>
<mask id="mask0_2612_75" style="mask-type:luminance" maskUnits="userSpaceOnUse" x="0" y="3" width="214" height="212">
<path d="M0 3H214V214.214H0V3Z" fill="white"/>
</mask>
<g mask="url(#mask0_2612_75)">
<path fill-rule="evenodd" clip-rule="evenodd" d="M133.556 213.838C152.406 209.01 169.19 199.128 182.52 185.792C202.057 166.481 214.013 139.822 214.013 110.402C214.013 80.9755 202.057 54.0829 182.52 34.5453C162.982 15.2345 136.316 3.05182 106.663 3.05182C77.2433 3.05182 50.5776 15.2345 31.2668 34.5453C15.1766 50.8623 4.14738 72.2402 0.926758 96.1455C17.9371 62.5848 51.9578 44.8876 85.9785 46.2678C92.6401 43.9674 99.5415 42.8204 106.663 42.8204C125.281 42.8204 142.064 50.4022 154.474 62.8181C191.022 99.3661 176.085 185.565 133.556 213.838Z" fill="#1800AD"/>
</g>
<path fill-rule="evenodd" clip-rule="evenodd" d="M32.8801 88.1037C37.9346 83.0427 43.4492 78.9084 49.4303 75.6877C52.1844 70.86 55.6318 66.4924 59.5394 62.5849C66.9008 55.2299 75.8628 49.4821 85.9783 46.2679C51.9576 44.8877 17.9369 62.5849 0.926527 96.1455C0.239632 100.746 0.00634766 105.574 0.00634766 110.402C0.00634766 139.128 11.2688 165.107 29.6594 184.418C7.1345 158.439 4.37396 116.837 32.8801 88.1037Z" fill="#5271FF"/>
<path fill-rule="evenodd" clip-rule="evenodd" d="M49.4304 75.6877C43.4493 78.9084 37.9347 83.0427 32.8802 88.1037C4.37405 116.837 7.13459 158.439 29.6595 184.418C30.1196 184.872 30.5797 185.332 31.2666 186.025C35.4074 190.159 39.775 193.84 44.6027 197.287C55.1718 203.949 67.8146 207.863 82.0709 207.863C113.791 207.863 137.696 188.552 147.812 163.494C136.316 172.229 122.066 177.29 106.663 177.29C88.2724 177.29 71.4953 169.935 59.3126 157.752C47.3568 145.796 39.775 129.019 39.775 110.402C39.775 97.7591 43.2225 85.8032 49.4304 75.6877Z" fill="white"/>
</svg>
