<svg width="289" height="220" viewBox="0 0 289 220" fill="none" xmlns="http://www.w3.org/2000/svg">
<mask id="mask0_2612_132" style="mask-type:luminance" maskUnits="userSpaceOnUse" x="59" y="0" width="172" height="170">
<path d="M59 0.239578H231V170H59V0.239578Z" fill="white"/>
</mask>
<g mask="url(#mask0_2612_132)">
<path fill-rule="evenodd" clip-rule="evenodd" d="M166.344 169.698C181.495 165.818 194.984 157.875 205.698 147.156C221.401 131.635 231.01 110.208 231.01 86.5625C231.01 62.9115 221.401 41.2969 205.698 25.5938C189.995 10.0729 168.562 0.28125 144.729 0.28125C121.083 0.28125 99.6509 10.0729 84.13 25.5938C71.1978 38.7083 62.3332 55.8906 59.7446 75.1042C73.4165 48.1302 100.76 33.9063 128.104 35.0156C133.458 33.1667 139.005 32.2448 144.729 32.2448C159.693 32.2448 173.182 38.3385 183.156 48.3177C212.531 77.6927 200.526 146.974 166.344 169.698Z" fill="white"/>
</g>
<path fill-rule="evenodd" clip-rule="evenodd" d="M85.4272 68.6406C89.4897 64.5729 93.922 61.25 98.7293 58.6615C100.943 54.7813 103.714 51.2708 106.854 48.1302C112.771 42.2188 119.974 37.599 128.104 35.0156C100.761 33.9063 73.4168 48.1302 59.745 75.1042C59.1929 78.8021 59.0054 82.6823 59.0054 86.5625C59.0054 109.651 68.0575 130.531 82.8387 146.052C64.7345 125.172 62.5158 91.7344 85.4272 68.6406Z" fill="white"/>
<path fill-rule="evenodd" clip-rule="evenodd" d="M98.729 58.6615C93.9217 61.25 89.4894 64.5729 85.4269 68.6406C62.5154 91.7344 64.7342 125.172 82.8384 146.052C83.2082 146.417 83.578 146.786 84.13 147.344C87.4582 150.667 90.9686 153.625 94.8488 156.396C103.344 161.75 113.505 164.896 124.963 164.896C150.458 164.896 169.672 149.375 177.802 129.234C168.562 136.255 157.109 140.323 144.729 140.323C129.948 140.323 116.463 134.411 106.672 124.62C97.0623 115.01 90.9686 101.526 90.9686 86.5625C90.9686 76.4011 93.7394 66.7917 98.729 58.6615Z" fill="white"/>
<path d="M15.6942 214.095H6.00667L4.34001 218.825H0.36084L8.67334 195.616H13.0692L21.3608 218.825H17.3608L15.6942 214.095ZM14.6317 210.991L10.8608 200.22L7.06917 210.991H14.6317Z" fill="white"/>
<path d="M31.4363 195.658V210.429C31.4363 212.179 31.8946 213.502 32.8113 214.387C33.7384 215.278 35.0248 215.72 36.6654 215.72C38.3321 215.72 39.6238 215.278 40.5404 214.387C41.4675 213.502 41.9363 212.179 41.9363 210.429V195.658H45.7279V210.366C45.7279 212.257 45.3165 213.856 44.4988 215.158C43.6759 216.465 42.5717 217.444 41.1863 218.095C39.8113 218.736 38.2904 219.054 36.6238 219.054C34.9571 219.054 33.4415 218.736 32.0821 218.095C30.7175 217.444 29.6342 216.465 28.8321 215.158C28.0248 213.856 27.6238 212.257 27.6238 210.366V195.658H31.4363Z" fill="white"/>
<path d="M68.32 195.658V198.762H62.1533V218.825H58.3617V198.762H52.1533V195.658H68.32Z" fill="white"/>
<path d="M85.4212 219.054C83.265 219.054 81.2806 218.554 79.4629 217.554C77.6556 216.543 76.2233 215.132 75.1712 213.325C74.1139 211.507 73.5879 209.465 73.5879 207.2C73.5879 204.923 74.1139 202.887 75.1712 201.095C76.2233 199.293 77.6556 197.887 79.4629 196.887C81.2806 195.877 83.265 195.366 85.4212 195.366C87.5983 195.366 89.5931 195.877 91.4004 196.887C93.2181 197.887 94.6504 199.293 95.6921 201.095C96.7337 202.887 97.2546 204.923 97.2546 207.2C97.2546 209.465 96.7337 211.507 95.6921 213.325C94.6504 215.132 93.2181 216.543 91.4004 217.554C89.5931 218.554 87.5983 219.054 85.4212 219.054ZM85.4212 215.762C86.9629 215.762 88.3275 215.418 89.5254 214.72C90.7181 214.012 91.6556 213.012 92.3379 211.72C93.015 210.418 93.3587 208.908 93.3587 207.2C93.3587 205.481 93.015 203.981 92.3379 202.7C91.6556 201.408 90.7181 200.423 89.5254 199.741C88.3275 199.048 86.9629 198.7 85.4212 198.7C83.89 198.7 82.5254 199.048 81.3171 199.741C80.1191 200.423 79.1816 201.408 78.5046 202.7C77.8223 203.981 77.4837 205.481 77.4837 207.2C77.4837 208.908 77.8223 210.418 78.5046 211.72C79.1816 213.012 80.1191 214.012 81.3171 214.72C82.5254 215.418 83.89 215.762 85.4212 215.762Z" fill="white"/>
<path d="M128.084 195.658V218.825H124.292V202.95L117.23 218.825H114.584L107.48 202.95V218.825H103.688V195.658H107.792L115.917 213.825L124.021 195.658H128.084Z" fill="white"/>
<path d="M149.742 214.095H140.054L138.387 218.825H134.408L142.721 195.616H147.117L155.408 218.825H151.408L149.742 214.095ZM148.679 210.991L144.908 200.22L141.117 210.991H148.679Z" fill="white"/>
<path d="M176.672 195.658V198.762H170.505V218.825H166.713V198.762H160.505V195.658H176.672Z" fill="white"/>
<path d="M187.002 195.658V218.825H183.21V195.658H187.002Z" fill="white"/>
<path d="M202.333 219.054C200.776 219.054 199.375 218.783 198.125 218.241C196.886 217.7 195.917 216.929 195.208 215.929C194.5 214.929 194.146 213.762 194.146 212.429H198.208C198.292 213.429 198.677 214.257 199.375 214.908C200.083 215.548 201.068 215.866 202.333 215.866C203.651 215.866 204.672 215.548 205.396 214.908C206.13 214.272 206.5 213.45 206.5 212.45C206.5 211.673 206.271 211.043 205.813 210.554C205.365 210.069 204.802 209.694 204.125 209.429C203.443 209.168 202.505 208.877 201.313 208.554C199.797 208.153 198.568 207.752 197.625 207.345C196.677 206.929 195.875 206.293 195.208 205.429C194.542 204.554 194.208 203.397 194.208 201.95C194.208 200.616 194.542 199.45 195.208 198.45C195.875 197.45 196.802 196.689 198 196.158C199.208 195.632 200.594 195.366 202.167 195.366C204.417 195.366 206.255 195.929 207.688 197.054C209.115 198.168 209.917 199.7 210.083 201.658H205.875C205.802 200.814 205.401 200.09 204.667 199.491C203.943 198.897 202.979 198.595 201.771 198.595C200.688 198.595 199.797 198.877 199.104 199.429C198.422 199.986 198.083 200.783 198.083 201.825C198.083 202.533 198.297 203.116 198.729 203.575C199.156 204.033 199.708 204.397 200.375 204.658C201.042 204.923 201.948 205.215 203.104 205.533C204.646 205.95 205.896 206.377 206.854 206.804C207.823 207.22 208.646 207.866 209.313 208.741C209.99 209.616 210.333 210.793 210.333 212.262C210.333 213.444 210.011 214.554 209.375 215.595C208.75 216.637 207.833 217.481 206.625 218.116C205.417 218.741 203.985 219.054 202.333 219.054Z" fill="white"/>
<path d="M228.101 219.054C225.945 219.054 223.961 218.554 222.143 217.554C220.336 216.543 218.903 215.132 217.851 213.325C216.794 211.507 216.268 209.465 216.268 207.2C216.268 204.923 216.794 202.887 217.851 201.095C218.903 199.293 220.336 197.887 222.143 196.887C223.961 195.877 225.945 195.366 228.101 195.366C230.278 195.366 232.273 195.877 234.081 196.887C235.898 197.887 237.331 199.293 238.372 201.095C239.414 202.887 239.935 204.923 239.935 207.2C239.935 209.465 239.414 211.507 238.372 213.325C237.331 215.132 235.898 216.543 234.081 217.554C232.273 218.554 230.278 219.054 228.101 219.054ZM228.101 215.762C229.643 215.762 231.008 215.418 232.206 214.72C233.398 214.012 234.336 213.012 235.018 211.72C235.695 210.418 236.039 208.908 236.039 207.2C236.039 205.481 235.695 203.981 235.018 202.7C234.336 201.408 233.398 200.423 232.206 199.741C231.008 199.048 229.643 198.7 228.101 198.7C226.57 198.7 225.206 199.048 223.997 199.741C222.799 200.423 221.862 201.408 221.185 202.7C220.502 203.981 220.164 205.481 220.164 207.2C220.164 208.908 220.502 210.418 221.185 211.72C221.862 213.012 222.799 214.012 223.997 214.72C225.206 215.418 226.57 215.762 228.101 215.762Z" fill="white"/>
<path d="M265.41 218.825H261.597L250.16 201.533V218.825H246.368V195.616H250.16L261.597 212.887V195.616H265.41V218.825Z" fill="white"/>
<path d="M280.723 219.054C279.165 219.054 277.764 218.783 276.514 218.241C275.275 217.7 274.306 216.929 273.598 215.929C272.889 214.929 272.535 213.762 272.535 212.429H276.598C276.681 213.429 277.066 214.257 277.764 214.908C278.473 215.548 279.457 215.866 280.723 215.866C282.04 215.866 283.061 215.548 283.785 214.908C284.52 214.272 284.889 213.45 284.889 212.45C284.889 211.673 284.66 211.043 284.202 210.554C283.754 210.069 283.191 209.694 282.514 209.429C281.832 209.168 280.895 208.877 279.702 208.554C278.186 208.153 276.957 207.752 276.014 207.345C275.066 206.929 274.264 206.293 273.598 205.429C272.931 204.554 272.598 203.397 272.598 201.95C272.598 200.616 272.931 199.45 273.598 198.45C274.264 197.45 275.191 196.689 276.389 196.158C277.598 195.632 278.983 195.366 280.556 195.366C282.806 195.366 284.645 195.929 286.077 197.054C287.504 198.168 288.306 199.7 288.473 201.658H284.264C284.191 200.814 283.79 200.09 283.056 199.491C282.332 198.897 281.368 198.595 280.16 198.595C279.077 198.595 278.186 198.877 277.493 199.429C276.811 199.986 276.473 200.783 276.473 201.825C276.473 202.533 276.686 203.116 277.118 203.575C277.546 204.033 278.098 204.397 278.764 204.658C279.431 204.923 280.337 205.215 281.493 205.533C283.035 205.95 284.285 206.377 285.243 206.804C286.212 207.22 287.035 207.866 287.702 208.741C288.379 209.616 288.723 210.793 288.723 212.262C288.723 213.444 288.4 214.554 287.764 215.595C287.139 216.637 286.223 217.481 285.014 218.116C283.806 218.741 282.374 219.054 280.723 219.054Z" fill="white"/>
</svg>
