<svg width="1136" height="212" viewBox="0 0 1136 212" fill="none" xmlns="http://www.w3.org/2000/svg">
<path d="M298.017 127.43H268.312L263.201 141.931H251L276.489 70.7666H289.968L315.393 141.931H303.128L298.017 127.43ZM294.759 117.911L283.196 84.8845L271.57 117.911H294.759Z" fill="#F9F9F9"/>
<path d="M346.288 70.8944V116.187C346.288 121.553 347.693 125.609 350.504 128.324C353.347 131.055 357.291 132.413 362.322 132.413C367.433 132.413 371.393 131.055 374.204 128.324C377.047 125.609 378.484 121.553 378.484 116.187V70.8944H390.111V115.995C390.111 121.792 388.849 126.695 386.342 130.688C383.818 134.696 380.433 137.699 376.185 139.695C371.968 141.66 367.305 142.634 362.194 142.634C357.084 142.634 352.436 141.66 348.268 139.695C344.084 137.699 340.762 134.696 338.303 130.688C335.827 126.695 334.597 121.792 334.597 115.995V70.8944H346.288Z" fill="#F9F9F9"/>
<path d="M459.385 70.8944V80.4128H440.476V141.931H428.85V80.4128H409.813V70.8944H459.385Z" fill="#F9F9F9"/>
<path d="M511.823 142.634C505.212 142.634 499.127 141.101 493.553 138.034C488.012 134.936 483.62 130.608 480.394 125.066C477.152 119.492 475.539 113.232 475.539 106.285C475.539 99.3058 477.152 93.0614 480.394 87.5675C483.62 82.0417 488.012 77.7297 493.553 74.6634C499.127 71.5651 505.212 70 511.823 70C518.499 70 524.616 71.5651 530.158 74.6634C535.731 77.7297 540.123 82.0417 543.317 87.5675C546.511 93.0614 548.108 99.3058 548.108 106.285C548.108 113.232 546.511 119.492 543.317 125.066C540.123 130.608 535.731 134.936 530.158 138.034C524.616 141.101 518.499 142.634 511.823 142.634ZM511.823 132.54C516.551 132.54 520.735 131.486 524.408 129.346C528.065 127.174 530.94 124.108 533.032 120.147C535.108 116.155 536.163 111.523 536.163 106.285C536.163 101.015 535.108 96.4152 533.032 92.4864C530.94 88.5257 528.065 85.5073 524.408 83.4152C520.735 81.2911 516.551 80.2211 511.823 80.2211C507.128 80.2211 502.944 81.2911 499.239 83.4152C495.566 85.5073 492.691 88.5257 490.615 92.4864C488.523 96.4152 487.484 101.015 487.484 106.285C487.484 111.523 488.523 116.155 490.615 120.147C492.691 124.108 495.566 127.174 499.239 129.346C502.944 131.486 507.128 132.54 511.823 132.54Z" fill="#F9F9F9"/>
<path d="M642.641 70.8944V141.931H631.014V93.2531L609.358 141.931H601.245L579.462 93.2531V141.931H567.835V70.8944H580.42L605.334 126.599L630.184 70.8944H642.641Z" fill="#F9F9F9"/>
<path d="M709.051 127.43H679.346L674.235 141.931H662.034L687.523 70.7666H701.002L726.427 141.931H714.161L709.051 127.43ZM705.793 117.911L694.23 84.8845L682.604 117.911H705.793Z" fill="#F9F9F9"/>
<path d="M791.626 70.8944V80.4128H772.717V141.931H761.091V80.4128H742.054V70.8944H791.626Z" fill="#F9F9F9"/>
<path d="M823.303 70.8944V141.931H811.676V70.8944H823.303Z" fill="#F9F9F9"/>
<path d="M870.315 142.634C865.54 142.634 861.244 141.803 857.411 140.142C853.61 138.481 850.639 136.118 848.467 133.051C846.295 129.985 845.209 126.408 845.209 122.319H857.666C857.922 125.386 859.104 127.925 861.244 129.921C863.416 131.886 866.434 132.86 870.315 132.86C874.356 132.86 877.486 131.886 879.706 129.921C881.958 127.973 883.091 125.449 883.091 122.383C883.091 120.004 882.389 118.071 880.983 116.57C879.61 115.085 877.885 113.935 875.809 113.12C873.717 112.322 870.842 111.427 867.185 110.437C862.537 109.208 858.768 107.978 855.878 106.732C852.971 105.454 850.512 103.506 848.467 100.855C846.423 98.1719 845.401 94.6265 845.401 90.1867C845.401 86.0982 846.423 82.5208 848.467 79.4545C850.512 76.3882 853.354 74.0565 857.028 72.4275C860.733 70.8145 864.981 70 869.804 70C876.703 70 882.341 71.7248 886.733 75.1744C891.109 78.5921 893.568 83.2874 894.079 89.2923H881.175C880.951 86.7051 879.722 84.4852 877.47 82.6486C875.25 80.828 872.295 79.9017 868.59 79.9017C865.268 79.9017 862.537 80.7641 860.413 82.457C858.321 84.1658 857.283 86.6093 857.283 89.8034C857.283 91.9754 857.938 93.7641 859.263 95.1695C860.573 96.5749 862.266 97.6928 864.31 98.4913C866.354 99.3058 869.133 100.2 872.679 101.174C877.406 102.452 881.239 103.762 884.177 105.071C887.148 106.349 889.671 108.329 891.715 111.012C893.792 113.695 894.846 117.305 894.846 121.808C894.846 125.434 893.856 128.835 891.907 132.029C889.991 135.223 887.18 137.811 883.475 139.759C879.77 141.675 875.378 142.634 870.315 142.634Z" fill="#F9F9F9"/>
<path d="M949.327 142.634C942.715 142.634 936.631 141.101 931.057 138.034C925.515 134.936 921.123 130.608 917.897 125.066C914.655 119.492 913.042 113.232 913.042 106.285C913.042 99.3058 914.655 93.0614 917.897 87.5675C921.123 82.0417 925.515 77.7297 931.057 74.6634C936.631 71.5651 942.715 70 949.327 70C956.003 70 962.12 71.5651 967.661 74.6634C973.235 77.7297 977.627 82.0417 980.821 87.5675C984.015 93.0614 985.612 99.3058 985.612 106.285C985.612 113.232 984.015 119.492 980.821 125.066C977.627 130.608 973.235 134.936 967.661 138.034C962.12 141.101 956.003 142.634 949.327 142.634ZM949.327 132.54C954.054 132.54 958.239 131.486 961.912 129.346C965.569 127.174 968.444 124.108 970.536 120.147C972.612 116.155 973.666 111.523 973.666 106.285C973.666 101.015 972.612 96.4152 970.536 92.4864C968.444 88.5257 965.569 85.5073 961.912 83.4152C958.239 81.2911 954.054 80.2211 949.327 80.2211C944.632 80.2211 940.448 81.2911 936.742 83.4152C933.069 85.5073 930.195 88.5257 928.118 92.4864C926.026 96.4152 924.988 101.015 924.988 106.285C924.988 111.523 926.026 116.155 928.118 120.147C930.195 124.108 933.069 127.174 936.742 129.346C940.448 131.486 944.632 132.54 949.327 132.54Z" fill="#F9F9F9"/>
<path d="M1063.73 141.931H1052.04L1016.97 88.9091V141.931H1005.34V70.7666H1016.97L1052.04 123.725V70.7666H1063.73V141.931Z" fill="#F9F9F9"/>
<path d="M1110.68 142.634C1105.91 142.634 1101.61 141.803 1097.78 140.142C1093.98 138.481 1091.01 136.118 1088.83 133.051C1086.66 129.985 1085.58 126.408 1085.58 122.319H1098.03C1098.29 125.386 1099.47 127.925 1101.61 129.921C1103.78 131.886 1106.8 132.86 1110.68 132.86C1114.72 132.86 1117.85 131.886 1120.07 129.921C1122.32 127.973 1123.46 125.449 1123.46 122.383C1123.46 120.004 1122.75 118.071 1121.35 116.57C1119.98 115.085 1118.25 113.935 1116.18 113.12C1114.08 112.322 1111.21 111.427 1107.55 110.437C1102.9 109.208 1099.13 107.978 1096.24 106.732C1093.34 105.454 1090.88 103.506 1088.83 100.855C1086.79 98.1719 1085.77 94.6265 1085.77 90.1867C1085.77 86.0982 1086.79 82.5208 1088.83 79.4545C1090.88 76.3882 1093.72 74.0565 1097.39 72.4275C1101.1 70.8145 1105.35 70 1110.17 70C1117.07 70 1122.71 71.7248 1127.1 75.1744C1131.47 78.5921 1133.93 83.2874 1134.45 89.2923H1121.54C1121.32 86.7051 1120.09 84.4852 1117.84 82.6486C1115.62 80.828 1112.66 79.9017 1108.96 79.9017C1105.63 79.9017 1102.9 80.7641 1100.78 82.457C1098.69 84.1658 1097.65 86.6093 1097.65 89.8034C1097.65 91.9754 1098.3 93.7641 1099.63 95.1695C1100.94 96.5749 1102.63 97.6928 1104.68 98.4913C1106.72 99.3058 1109.5 100.2 1113.04 101.174C1117.77 102.452 1121.61 103.762 1124.54 105.071C1127.51 106.349 1130.04 108.329 1132.08 111.012C1134.16 113.695 1135.21 117.305 1135.21 121.808C1135.21 125.434 1134.22 128.835 1132.27 132.029C1130.36 135.223 1127.55 137.811 1123.84 139.759C1120.14 141.675 1115.74 142.634 1110.68 142.634Z" fill="#F9F9F9"/>
<mask id="mask0_2612_63" style="mask-type:luminance" maskUnits="userSpaceOnUse" x="0" y="0" width="214" height="212">
<path d="M0 0H214V211.214H0V0Z" fill="white"/>
</mask>
<g mask="url(#mask0_2612_63)">
<path fill-rule="evenodd" clip-rule="evenodd" d="M133.556 210.838C152.406 206.01 169.19 196.128 182.52 182.792C202.057 163.481 214.013 136.822 214.013 107.402C214.013 77.9755 202.057 51.0829 182.52 31.5453C162.982 12.2345 136.316 0.0518494 106.663 0.0518494C77.2433 0.0518494 50.5776 12.2345 31.2668 31.5453C15.1766 47.8623 4.14738 69.2403 0.926758 93.1455C17.9371 59.5849 51.9578 41.8876 85.9785 43.2679C92.6401 40.9674 99.5415 39.8204 106.663 39.8204C125.281 39.8204 142.064 47.4022 154.474 59.8181C191.022 96.3661 176.085 182.565 133.556 210.838Z" fill="#1800AD"/>
</g>
<path fill-rule="evenodd" clip-rule="evenodd" d="M32.8801 85.1037C37.9346 80.0427 43.4492 75.9084 49.4303 72.6877C52.1844 67.86 55.6318 63.4924 59.5394 59.5849C66.9008 52.2299 75.8628 46.4821 85.9783 43.2679C51.9576 41.8877 17.9369 59.5849 0.926527 93.1455C0.239632 97.7464 0.00634766 102.574 0.00634766 107.402C0.00634766 136.128 11.2688 162.107 29.6594 181.418C7.1345 155.439 4.37396 113.837 32.8801 85.1037Z" fill="#5271FF"/>
<path fill-rule="evenodd" clip-rule="evenodd" d="M49.4307 72.6877C43.4495 75.9083 37.9349 80.0427 32.8804 85.1037C4.37429 113.837 7.13483 155.439 29.6598 181.418C30.1199 181.872 30.58 182.332 31.2669 183.025C35.4077 187.159 39.7753 190.84 44.603 194.287C55.1721 200.949 67.8148 204.863 82.0711 204.863C113.791 204.863 137.697 185.552 147.812 160.494C136.316 169.229 122.067 174.29 106.663 174.29C88.2726 174.29 71.4955 166.935 59.3129 154.752C47.357 142.796 39.7753 126.019 39.7753 107.402C39.7753 94.7591 43.2227 82.8032 49.4307 72.6877Z" fill="white"/>
</svg>
