<svg xmlns="http://www.w3.org/2000/svg" xmlns:xlink="http://www.w3.org/1999/xlink" width="500" zoomAndPan="magnify" viewBox="0 0 375 374.999991" height="500" preserveAspectRatio="xMidYMid meet" version="1.0"><defs><g/><clipPath id="7e5fe8f2e3"><path d="M 123 97.679688 L 252 97.679688 L 252 225 L 123 225 Z M 123 97.679688 " clip-rule="nonzero"/></clipPath></defs><g clip-path="url(#7e5fe8f2e3)"><path fill="#1800ad" d="M 203.507812 224.773438 C 214.871094 221.863281 224.988281 215.90625 233.023438 207.867188 C 244.800781 196.226562 252.007812 180.15625 252.007812 162.421875 C 252.007812 144.683594 244.800781 128.472656 233.023438 116.695312 C 221.246094 105.054688 205.171875 97.710938 187.296875 97.710938 C 169.5625 97.710938 153.488281 105.054688 141.847656 116.695312 C 132.148438 126.53125 125.5 139.417969 123.558594 153.828125 C 133.8125 133.597656 154.320312 122.929688 174.828125 123.761719 C 178.84375 122.375 183.003906 121.683594 187.296875 121.683594 C 198.519531 121.683594 208.636719 126.253906 216.117188 133.738281 C 238.148438 155.769531 229.144531 207.730469 203.507812 224.773438 " fill-opacity="1" fill-rule="evenodd"/></g><path fill="#5271ff" d="M 142.820312 148.980469 C 145.867188 145.929688 149.191406 143.4375 152.796875 141.496094 C 154.457031 138.585938 156.535156 135.953125 158.890625 133.597656 C 163.328125 129.164062 168.730469 125.699219 174.828125 123.761719 C 154.320312 122.929688 133.8125 133.597656 123.558594 153.828125 C 123.144531 156.601562 123.003906 159.511719 123.003906 162.421875 C 123.003906 179.738281 129.792969 195.398438 140.878906 207.039062 C 127.300781 191.378906 125.636719 166.300781 142.820312 148.980469 " fill-opacity="1" fill-rule="evenodd"/><path fill="#ffffff" d="M 152.796875 141.496094 C 149.191406 143.4375 145.867188 145.929688 142.820312 148.980469 C 125.636719 166.300781 127.300781 191.378906 140.878906 207.039062 C 141.15625 207.3125 141.433594 207.589844 141.847656 208.007812 C 144.34375 210.5 146.976562 212.71875 149.886719 214.796875 C 156.257812 218.8125 163.878906 221.171875 172.472656 221.171875 C 191.59375 221.171875 206.003906 209.53125 212.101562 194.425781 C 205.171875 199.691406 196.582031 202.742188 187.296875 202.742188 C 176.210938 202.742188 166.097656 198.308594 158.753906 190.964844 C 151.546875 183.757812 146.976562 173.644531 146.976562 162.421875 C 146.976562 154.800781 149.054688 147.59375 152.796875 141.496094 " fill-opacity="1" fill-rule="evenodd"/><g fill="#f9f9f9" fill-opacity="1"><g transform="translate(78.176828, 261.618396)"><g><path d="M 12.34375 -3.546875 L 5.078125 -3.546875 L 3.828125 0 L 0.84375 0 L 7.078125 -17.40625 L 10.375 -17.40625 L 16.59375 0 L 13.59375 0 Z M 11.546875 -5.875 L 8.71875 -13.953125 L 5.875 -5.875 Z M 11.546875 -5.875 "/></g></g></g><g fill="#f9f9f9" fill-opacity="1"><g transform="translate(97.624069, 261.618396)"><g><path d="M 4.703125 -17.375 L 4.703125 -6.296875 C 4.703125 -4.984375 5.046875 -3.992188 5.734375 -3.328125 C 6.429688 -2.660156 7.394531 -2.328125 8.625 -2.328125 C 9.875 -2.328125 10.84375 -2.660156 11.53125 -3.328125 C 12.226562 -3.992188 12.578125 -4.984375 12.578125 -6.296875 L 12.578125 -17.375 L 15.421875 -17.375 L 15.421875 -6.34375 C 15.421875 -4.925781 15.113281 -3.726562 14.5 -2.75 C 13.882812 -1.769531 13.054688 -1.035156 12.015625 -0.546875 C 10.984375 -0.0664062 9.84375 0.171875 8.59375 0.171875 C 7.34375 0.171875 6.207031 -0.0664062 5.1875 -0.546875 C 4.164062 -1.035156 3.351562 -1.769531 2.75 -2.75 C 2.144531 -3.726562 1.84375 -4.925781 1.84375 -6.34375 L 1.84375 -17.375 Z M 4.703125 -17.375 "/></g></g></g><g fill="#f9f9f9" fill-opacity="1"><g transform="translate(116.896331, 261.618396)"><g><path d="M 13.09375 -17.375 L 13.09375 -15.046875 L 8.46875 -15.046875 L 8.46875 0 L 5.625 0 L 5.625 -15.046875 L 0.96875 -15.046875 L 0.96875 -17.375 Z M 13.09375 -17.375 "/></g></g></g><g fill="#f9f9f9" fill-opacity="1"><g transform="translate(133.019098, 261.618396)"><g><path d="M 9.796875 0.171875 C 8.179688 0.171875 6.691406 -0.203125 5.328125 -0.953125 C 3.972656 -1.710938 2.898438 -2.769531 2.109375 -4.125 C 1.316406 -5.488281 0.921875 -7.019531 0.921875 -8.71875 C 0.921875 -10.425781 1.316406 -11.953125 2.109375 -13.296875 C 2.898438 -14.648438 3.972656 -15.703125 5.328125 -16.453125 C 6.691406 -17.210938 8.179688 -17.59375 9.796875 -17.59375 C 11.429688 -17.59375 12.925781 -17.210938 14.28125 -16.453125 C 15.644531 -15.703125 16.71875 -14.648438 17.5 -13.296875 C 18.28125 -11.953125 18.671875 -10.425781 18.671875 -8.71875 C 18.671875 -7.019531 18.28125 -5.488281 17.5 -4.125 C 16.71875 -2.769531 15.644531 -1.710938 14.28125 -0.953125 C 12.925781 -0.203125 11.429688 0.171875 9.796875 0.171875 Z M 9.796875 -2.296875 C 10.953125 -2.296875 11.976562 -2.554688 12.875 -3.078125 C 13.769531 -3.609375 14.472656 -4.359375 14.984375 -5.328125 C 15.492188 -6.304688 15.75 -7.4375 15.75 -8.71875 C 15.75 -10.007812 15.492188 -11.132812 14.984375 -12.09375 C 14.472656 -13.0625 13.769531 -13.800781 12.875 -14.3125 C 11.976562 -14.832031 10.953125 -15.09375 9.796875 -15.09375 C 8.648438 -15.09375 7.625 -14.832031 6.71875 -14.3125 C 5.820312 -13.800781 5.117188 -13.0625 4.609375 -12.09375 C 4.097656 -11.132812 3.84375 -10.007812 3.84375 -8.71875 C 3.84375 -7.4375 4.097656 -6.304688 4.609375 -5.328125 C 5.117188 -4.359375 5.820312 -3.609375 6.71875 -3.078125 C 7.625 -2.554688 8.648438 -2.296875 9.796875 -2.296875 Z M 9.796875 -2.296875 "/></g></g></g><g fill="#f9f9f9" fill-opacity="1"><g transform="translate(154.640992, 261.618396)"><g><path d="M 20.171875 -17.375 L 20.171875 0 L 17.328125 0 L 17.328125 -11.90625 L 12.03125 0 L 10.046875 0 L 4.71875 -11.90625 L 4.71875 0 L 1.875 0 L 1.875 -17.375 L 4.953125 -17.375 L 11.046875 -3.75 L 17.125 -17.375 Z M 20.171875 -17.375 "/></g></g></g><g fill="#f9f9f9" fill-opacity="1"><g transform="translate(178.712493, 261.618396)"><g><path d="M 12.34375 -3.546875 L 5.078125 -3.546875 L 3.828125 0 L 0.84375 0 L 7.078125 -17.40625 L 10.375 -17.40625 L 16.59375 0 L 13.59375 0 Z M 11.546875 -5.875 L 8.71875 -13.953125 L 5.875 -5.875 Z M 11.546875 -5.875 "/></g></g></g><g fill="#f9f9f9" fill-opacity="1"><g transform="translate(198.159734, 261.618396)"><g><path d="M 13.09375 -17.375 L 13.09375 -15.046875 L 8.46875 -15.046875 L 8.46875 0 L 5.625 0 L 5.625 -15.046875 L 0.96875 -15.046875 L 0.96875 -17.375 Z M 13.09375 -17.375 "/></g></g></g><g fill="#f9f9f9" fill-opacity="1"><g transform="translate(214.282502, 261.618396)"><g><path d="M 4.71875 -17.375 L 4.71875 0 L 1.875 0 L 1.875 -17.375 Z M 4.71875 -17.375 "/></g></g></g><g fill="#f9f9f9" fill-opacity="1"><g transform="translate(222.90646, 261.618396)"><g><path d="M 7.59375 0.171875 C 6.425781 0.171875 5.375 -0.03125 4.4375 -0.4375 C 3.507812 -0.84375 2.78125 -1.421875 2.25 -2.171875 C 1.71875 -2.921875 1.453125 -3.796875 1.453125 -4.796875 L 4.5 -4.796875 C 4.5625 -4.046875 4.851562 -3.425781 5.375 -2.9375 C 5.90625 -2.457031 6.644531 -2.21875 7.59375 -2.21875 C 8.582031 -2.21875 9.347656 -2.457031 9.890625 -2.9375 C 10.441406 -3.414062 10.71875 -4.03125 10.71875 -4.78125 C 10.71875 -5.363281 10.546875 -5.835938 10.203125 -6.203125 C 9.867188 -6.566406 9.445312 -6.847656 8.9375 -7.046875 C 8.425781 -7.242188 7.722656 -7.460938 6.828125 -7.703125 C 5.691406 -8.003906 4.769531 -8.304688 4.0625 -8.609375 C 3.351562 -8.921875 2.75 -9.398438 2.25 -10.046875 C 1.75 -10.703125 1.5 -11.570312 1.5 -12.65625 C 1.5 -13.65625 1.75 -14.53125 2.25 -15.28125 C 2.75 -16.03125 3.445312 -16.601562 4.34375 -17 C 5.25 -17.394531 6.289062 -17.59375 7.46875 -17.59375 C 9.15625 -17.59375 10.535156 -17.171875 11.609375 -16.328125 C 12.679688 -15.492188 13.28125 -14.34375 13.40625 -12.875 L 10.25 -12.875 C 10.195312 -13.507812 9.894531 -14.050781 9.34375 -14.5 C 8.800781 -14.945312 8.078125 -15.171875 7.171875 -15.171875 C 6.359375 -15.171875 5.691406 -14.960938 5.171875 -14.546875 C 4.660156 -14.128906 4.40625 -13.53125 4.40625 -12.75 C 4.40625 -12.21875 4.566406 -11.78125 4.890625 -11.4375 C 5.210938 -11.09375 5.625 -10.820312 6.125 -10.625 C 6.625 -10.425781 7.304688 -10.207031 8.171875 -9.96875 C 9.328125 -9.65625 10.265625 -9.335938 10.984375 -9.015625 C 11.710938 -8.703125 12.328125 -8.21875 12.828125 -7.5625 C 13.335938 -6.90625 13.59375 -6.023438 13.59375 -4.921875 C 13.59375 -4.035156 13.351562 -3.203125 12.875 -2.421875 C 12.40625 -1.640625 11.71875 -1.007812 10.8125 -0.53125 C 9.90625 -0.0625 8.832031 0.171875 7.59375 0.171875 Z M 7.59375 0.171875 "/></g></g></g><g fill="#f9f9f9" fill-opacity="1"><g transform="translate(240.029063, 261.618396)"><g><path d="M 9.796875 0.171875 C 8.179688 0.171875 6.691406 -0.203125 5.328125 -0.953125 C 3.972656 -1.710938 2.898438 -2.769531 2.109375 -4.125 C 1.316406 -5.488281 0.921875 -7.019531 0.921875 -8.71875 C 0.921875 -10.425781 1.316406 -11.953125 2.109375 -13.296875 C 2.898438 -14.648438 3.972656 -15.703125 5.328125 -16.453125 C 6.691406 -17.210938 8.179688 -17.59375 9.796875 -17.59375 C 11.429688 -17.59375 12.925781 -17.210938 14.28125 -16.453125 C 15.644531 -15.703125 16.71875 -14.648438 17.5 -13.296875 C 18.28125 -11.953125 18.671875 -10.425781 18.671875 -8.71875 C 18.671875 -7.019531 18.28125 -5.488281 17.5 -4.125 C 16.71875 -2.769531 15.644531 -1.710938 14.28125 -0.953125 C 12.925781 -0.203125 11.429688 0.171875 9.796875 0.171875 Z M 9.796875 -2.296875 C 10.953125 -2.296875 11.976562 -2.554688 12.875 -3.078125 C 13.769531 -3.609375 14.472656 -4.359375 14.984375 -5.328125 C 15.492188 -6.304688 15.75 -7.4375 15.75 -8.71875 C 15.75 -10.007812 15.492188 -11.132812 14.984375 -12.09375 C 14.472656 -13.0625 13.769531 -13.800781 12.875 -14.3125 C 11.976562 -14.832031 10.953125 -15.09375 9.796875 -15.09375 C 8.648438 -15.09375 7.625 -14.832031 6.71875 -14.3125 C 5.820312 -13.800781 5.117188 -13.0625 4.609375 -12.09375 C 4.097656 -11.132812 3.84375 -10.007812 3.84375 -8.71875 C 3.84375 -7.4375 4.097656 -6.304688 4.609375 -5.328125 C 5.117188 -4.359375 5.820312 -3.609375 6.71875 -3.078125 C 7.625 -2.554688 8.648438 -2.296875 9.796875 -2.296875 Z M 9.796875 -2.296875 "/></g></g></g><g fill="#f9f9f9" fill-opacity="1"><g transform="translate(261.650956, 261.618396)"><g><path d="M 16.15625 0 L 13.296875 0 L 4.71875 -12.96875 L 4.71875 0 L 1.875 0 L 1.875 -17.40625 L 4.71875 -17.40625 L 13.296875 -4.453125 L 13.296875 -17.40625 L 16.15625 -17.40625 Z M 16.15625 0 "/></g></g></g><g fill="#f9f9f9" fill-opacity="1"><g transform="translate(281.698085, 261.618396)"><g><path d="M 7.59375 0.171875 C 6.425781 0.171875 5.375 -0.03125 4.4375 -0.4375 C 3.507812 -0.84375 2.78125 -1.421875 2.25 -2.171875 C 1.71875 -2.921875 1.453125 -3.796875 1.453125 -4.796875 L 4.5 -4.796875 C 4.5625 -4.046875 4.851562 -3.425781 5.375 -2.9375 C 5.90625 -2.457031 6.644531 -2.21875 7.59375 -2.21875 C 8.582031 -2.21875 9.347656 -2.457031 9.890625 -2.9375 C 10.441406 -3.414062 10.71875 -4.03125 10.71875 -4.78125 C 10.71875 -5.363281 10.546875 -5.835938 10.203125 -6.203125 C 9.867188 -6.566406 9.445312 -6.847656 8.9375 -7.046875 C 8.425781 -7.242188 7.722656 -7.460938 6.828125 -7.703125 C 5.691406 -8.003906 4.769531 -8.304688 4.0625 -8.609375 C 3.351562 -8.921875 2.75 -9.398438 2.25 -10.046875 C 1.75 -10.703125 1.5 -11.570312 1.5 -12.65625 C 1.5 -13.65625 1.75 -14.53125 2.25 -15.28125 C 2.75 -16.03125 3.445312 -16.601562 4.34375 -17 C 5.25 -17.394531 6.289062 -17.59375 7.46875 -17.59375 C 9.15625 -17.59375 10.535156 -17.171875 11.609375 -16.328125 C 12.679688 -15.492188 13.28125 -14.34375 13.40625 -12.875 L 10.25 -12.875 C 10.195312 -13.507812 9.894531 -14.050781 9.34375 -14.5 C 8.800781 -14.945312 8.078125 -15.171875 7.171875 -15.171875 C 6.359375 -15.171875 5.691406 -14.960938 5.171875 -14.546875 C 4.660156 -14.128906 4.40625 -13.53125 4.40625 -12.75 C 4.40625 -12.21875 4.566406 -11.78125 4.890625 -11.4375 C 5.210938 -11.09375 5.625 -10.820312 6.125 -10.625 C 6.625 -10.425781 7.304688 -10.207031 8.171875 -9.96875 C 9.328125 -9.65625 10.265625 -9.335938 10.984375 -9.015625 C 11.710938 -8.703125 12.328125 -8.21875 12.828125 -7.5625 C 13.335938 -6.90625 13.59375 -6.023438 13.59375 -4.921875 C 13.59375 -4.035156 13.351562 -3.203125 12.875 -2.421875 C 12.40625 -1.640625 11.71875 -1.007812 10.8125 -0.53125 C 9.90625 -0.0625 8.832031 0.171875 7.59375 0.171875 Z M 7.59375 0.171875 "/></g></g></g></svg>